<svg xmlns="http://www.w3.org/2000/svg" viewBox="0 0 24 24" aria-hidden="true">
  <!-- GitHub mark — rendered white to show well on dark backgrounds -->
  <path d="M12 2C6.48 2 2 6.48 2 12c0 4.42 2.87 8.17 6.84 9.5.5.09.66-.22.66-.49 0-.24-.01-.87-.01-1.71-2.78.6-3.37-1.34-3.37-1.34-.45-1.16-1.11-1.47-1.11-1.47-.91-.62.07-.61.07-.61 1.01.07 1.54 1.04 1.54 1.04.9 1.54 2.36 1.1 2.94.84.09-.66.35-1.1.63-1.35-2.22-.25-4.56-1.11-4.56-4.95 0-1.09.39-1.98 1.03-2.68-.1-.25-.45-1.27.1-2.65 0 0 .84-.27 2.75 1.02A9.56 9.56 0 0 1 12 6.8c.85.004 1.71.115 2.51.337 1.91-1.29 2.75-1.02 2.75-1.02.55 1.38.2 2.4.1 2.65.64.7 1.03 1.59 1.03 2.68 0 3.85-2.34 4.7-4.57 4.95.36.31.68.92.68 1.86 0 1.34-.01 2.42-.01 2.75 0 .27.16.59.67.49C19.13 20.17 22 16.42 22 12c0-5.52-4.48-10-10-10z" fill="#ffffff"/>
</svg>
